<?xml version="1.0" standalone="no"?>
<!DOCTYPE svg PUBLIC "-//W3C//DTD SVG 20010904//EN"
 "http://www.w3.org/TR/2001/REC-SVG-20010904/DTD/svg10.dtd">
<svg version="1.0" xmlns="http://www.w3.org/2000/svg"
 width="347.000000pt" height="43.000000pt" viewBox="0 0 347.000000 43.000000"
 preserveAspectRatio="xMidYMid meet">

<g transform="translate(0.000000,43.000000) scale(0.100000,-0.100000)"
fill="#000000" stroke="none">
<path d="M1210 230 c0 -83 1 -90 20 -90 17 0 20 7 20 50 0 47 2 50 25 50 23 0
25 -3 25 -50 0 -43 3 -50 20 -50 17 0 20 7 20 48 0 63 -17 86 -58 80 -30 -4
-32 -2 -32 24 0 21 -5 28 -20 28 -19 0 -20 -7 -20 -90z"/>
<path d="M1700 230 c0 -72 3 -90 14 -90 11 0 16 14 18 48 3 43 5 47 28 47 23
0 25 -4 28 -47 3 -40 6 -48 23 -48 16 0 19 7 19 43 0 61 -23 91 -66 84 -32 -5
-34 -4 -34 24 0 19 -5 29 -15 29 -12 0 -15 -17 -15 -90z"/>
<path d="M1063 298 c-70 -34 -41 -158 37 -158 37 0 98 52 68 58 -9 2 -28 -4
-42 -13 -38 -25 -68 -5 -64 43 2 30 7 38 27 40 13 2 34 -2 47 -8 38 -21 52 -7
22 23 -28 28 -58 33 -95 15z"/>
<path d="M1862 288 c44 -68 44 -63 15 -107 -26 -39 -26 -41 -7 -41 11 0 27 12
36 26 l17 25 22 -26 c12 -16 28 -26 38 -24 15 4 14 9 -9 43 -29 42 -29 37 14
104 13 20 13 22 -6 22 -11 0 -28 -12 -37 -27 l-18 -26 -19 26 c-11 15 -29 27
-40 27 -19 0 -19 -2 -6 -22z"/>
<path d="M1382 257 c-18 -23 -21 -47 -11 -76 12 -33 23 -38 87 -39 l42 -1 0
63 0 64 -54 1 c-31 0 -58 -5 -64 -12z m73 -52 c0 -23 -5 -30 -19 -30 -24 0
-41 27 -33 49 4 11 15 16 29 14 18 -2 23 -9 23 -33z"/>
<path d="M1540 203 c0 -48 3 -63 14 -63 11 0 16 14 18 48 3 43 5 47 28 47 23
0 25 -4 28 -47 2 -34 7 -48 18 -48 18 0 20 103 2 118 -7 6 -34 10 -60 10 l-48
-1 0 -64z"/>
<path d="M2042 258 c-48 -60 6 -140 74 -109 36 16 29 32 -12 29 -23 -2 -39 2
-41 10 -3 8 9 12 41 12 38 0 46 3 46 18 0 42 -82 72 -108 40z m68 -28 c0 -5
-12 -10 -26 -10 -14 0 -23 4 -19 10 3 6 15 10 26 10 10 0 19 -4 19 -10z"/>
</g>
</svg>
